# xmcd CD database file
#
# Track frame offsets:
#	150
#	13563
#	32037
#	47727
#	61293
#	75683
#	92189
#	108596
#	123818
#	141329
#	156743
#	171549
#
# Disc length: 2525 seconds
#
# Revision: 5
# Processed by: cddbd v1.5.2PL0 Copyright (c) Steve Scherf et al.
# Submitted via: CDex 1.51
#
DISCID=a609db0c
DTITLE=Toby Keith - White Trash With Money
DYEAR=2006
DGENRE=Country
TTITLE0=Get Drunk And Be Somebody
TTITLE1=A Little Too Late
TTITLE2=Can't Buy You Money
TTITLE3=Crash Here Tonight
TTITLE4=Grain Of Salt
TTITLE5=I Ain't Already There
TTITLE6=Note To Self
TTITLE7=Too Far This Time
TTITLE8=Ain't No Right Away
TTITLE9=Brand New Bow
TTITLE10=Hell No
TTITLE11=Runnin' Block
EXTD=YEAR: 2006
EXTT0=
EXTT1=
EXTT2=
EXTT3=
EXTT4=
EXTT5=
EXTT6=
EXTT7=
EXTT8=
EXTT9=
EXTT10=
EXTT11=
PLAYORDER=
